<svg xmlns="http://www.w3.org/2000/svg" viewBox="0 0 1200 900" font-family="Inter, system-ui, sans-serif">
  <defs>
    <linearGradient id="bgGrad" x1="0%" y1="0%" x2="100%" y2="100%">
      <stop offset="0%" style="stop-color:#0f172a"/>
      <stop offset="100%" style="stop-color:#1e293b"/>
    </linearGradient>
    <linearGradient id="vercelGrad" x1="0%" y1="0%" x2="0%" y2="100%">
      <stop offset="0%" style="stop-color:#1e293b"/>
      <stop offset="100%" style="stop-color:#0f172a"/>
    </linearGradient>
    <linearGradient id="supaGrad" x1="0%" y1="0%" x2="0%" y2="100%">
      <stop offset="0%" style="stop-color:#1a2332"/>
      <stop offset="100%" style="stop-color:#0d1520"/>
    </linearGradient>
    <linearGradient id="dockerGrad" x1="0%" y1="0%" x2="0%" y2="100%">
      <stop offset="0%" style="stop-color:#1a2332"/>
      <stop offset="100%" style="stop-color:#0d1520"/>
    </linearGradient>
    <filter id="glow">
      <feGaussianBlur stdDeviation="2" result="blur"/>
      <feMerge><feMergeNode in="blur"/><feMergeNode in="SourceGraphic"/></feMerge>
    </filter>
  </defs>

  <!-- Background -->
  <rect width="1200" height="900" fill="url(#bgGrad)" rx="12"/>

  <!-- Title -->
  <text x="600" y="40" text-anchor="middle" fill="#f1f5f9" font-size="20" font-weight="700">LLM Data Poisoning Detection PaaS — Technical Architecture</text>
  <text x="600" y="60" text-anchor="middle" fill="#64748b" font-size="11">Multi-Tenant Detection Platform | 6 Engines · 17 Tables · 8 Edge Functions · 7 RPCs</text>

  <!-- ═══════════ FRONTEND LAYER (Vercel) ═══════════ -->
  <rect x="30" y="80" width="740" height="270" rx="10" fill="url(#vercelGrad)" stroke="#334155" stroke-width="1.5"/>
  <text x="50" y="102" fill="#38bdf8" font-size="12" font-weight="700">VERCEL — Next.js 14 Frontend</text>
  <text x="370" y="102" fill="#475569" font-size="9">React 18 · TypeScript 5.4 · Tailwind CSS 3.4 · Recharts 2.12</text>

  <!-- Page boxes -->
  <rect x="50" y="115" width="110" height="55" rx="6" fill="#1e3a5f" stroke="#3b82f6" stroke-width="1"/>
  <text x="105" y="137" text-anchor="middle" fill="#93c5fd" font-size="10" font-weight="600">Dashboard</text>
  <text x="105" y="152" text-anchor="middle" fill="#64748b" font-size="8">KPIs · Charts</text>
  <text x="105" y="163" text-anchor="middle" fill="#64748b" font-size="8">Alerts · Timeline</text>

  <rect x="170" y="115" width="110" height="55" rx="6" fill="#1e3a5f" stroke="#3b82f6" stroke-width="1"/>
  <text x="225" y="137" text-anchor="middle" fill="#93c5fd" font-size="10" font-weight="600">Vectors</text>
  <text x="225" y="152" text-anchor="middle" fill="#64748b" font-size="8">Scatter Plot</text>
  <text x="225" y="163" text-anchor="middle" fill="#64748b" font-size="8">Anomaly Histogram</text>

  <rect x="290" y="115" width="110" height="55" rx="6" fill="#1e3a5f" stroke="#3b82f6" stroke-width="1"/>
  <text x="345" y="137" text-anchor="middle" fill="#93c5fd" font-size="10" font-weight="600">RAG Scanner</text>
  <text x="345" y="152" text-anchor="middle" fill="#64748b" font-size="8">Batch Upload</text>
  <text x="345" y="163" text-anchor="middle" fill="#64748b" font-size="8">Hidden Instructions</text>

  <rect x="410" y="115" width="110" height="55" rx="6" fill="#1e3a5f" stroke="#3b82f6" stroke-width="1"/>
  <text x="465" y="137" text-anchor="middle" fill="#93c5fd" font-size="10" font-weight="600">MCP Auditor</text>
  <text x="465" y="152" text-anchor="middle" fill="#64748b" font-size="8">Tool Schema Audit</text>
  <text x="465" y="163" text-anchor="middle" fill="#64748b" font-size="8">Threat Patterns</text>

  <rect x="530" y="115" width="110" height="55" rx="6" fill="#1e3a5f" stroke="#3b82f6" stroke-width="1"/>
  <text x="585" y="137" text-anchor="middle" fill="#93c5fd" font-size="10" font-weight="600">Provenance</text>
  <text x="585" y="152" text-anchor="middle" fill="#64748b" font-size="8">Lineage DAG</text>
  <text x="585" y="163" text-anchor="middle" fill="#64748b" font-size="8">Contamination</text>

  <rect x="650" y="115" width="110" height="55" rx="6" fill="#1e3a5f" stroke="#3b82f6" stroke-width="1"/>
  <text x="705" y="137" text-anchor="middle" fill="#93c5fd" font-size="10" font-weight="600">Telemetry</text>
  <text x="705" y="152" text-anchor="middle" fill="#64748b" font-size="8">8 Attack Scenarios</text>
  <text x="705" y="163" text-anchor="middle" fill="#64748b" font-size="8">Trace Simulator</text>

  <!-- API Layer -->
  <rect x="50" y="185" width="710" height="45" rx="6" fill="#1a2332" stroke="#475569" stroke-width="1"/>
  <text x="60" y="206" fill="#e2e8f0" font-size="10" font-weight="600">api.ts — Unified API Layer</text>
  <text x="60" y="220" fill="#64748b" font-size="9">Three-tier resolution: Supabase PostgREST/RPC → Mock Data → REST API Fallback</text>
  <text x="550" y="213" fill="#22c55e" font-size="9" font-weight="600">callRpc() · queryRest() · runSimulation() · scanRAGDocument()</text>

  <!-- Auth -->
  <rect x="50" y="240" width="340" height="35" rx="6" fill="#1a2332" stroke="#475569" stroke-width="1"/>
  <text x="60" y="258" fill="#e2e8f0" font-size="10" font-weight="600">Supabase Auth (SSR)</text>
  <text x="60" y="270" fill="#64748b" font-size="9">@supabase/ssr · Cookie-based · supabase-server.ts + supabase.ts</text>

  <rect x="400" y="240" width="360" height="35" rx="6" fill="#1a2332" stroke="#475569" stroke-width="1"/>
  <text x="410" y="258" fill="#e2e8f0" font-size="10" font-weight="600">Shared Components</text>
  <text x="410" y="270" fill="#64748b" font-size="9">Sidebar · MetricCard · ThreatBadge · ChartWrapper · DashboardCharts</text>

  <!-- Connection arrows from frontend to Supabase -->
  <line x1="400" y1="350" x2="400" y2="380" stroke="#3b82f6" stroke-width="2" stroke-dasharray="6,3"/>
  <polygon points="395,378 400,388 405,378" fill="#3b82f6"/>
  <text x="410" y="373" fill="#64748b" font-size="9">PostgREST + Edge Functions</text>

  <!-- ═══════════ DETECTION ENGINES (right panel) ═══════════ -->
  <rect x="790" y="80" width="380" height="270" rx="10" fill="#1a1a2e" stroke="#334155" stroke-width="1.5"/>
  <text x="810" y="102" fill="#f59e0b" font-size="12" font-weight="700">DETECTION ENGINES</text>

  <rect x="810" y="115" width="170" height="38" rx="5" fill="#1e293b" stroke="#ef4444" stroke-width="1"/>
  <text x="895" y="133" text-anchor="middle" fill="#fca5a5" font-size="9" font-weight="600">Vector Analyzer</text>
  <text x="895" y="146" text-anchor="middle" fill="#64748b" font-size="8">Cosine · Centroid · Z-score · Split</text>

  <rect x="990" y="115" width="170" height="38" rx="5" fill="#1e293b" stroke="#ef4444" stroke-width="1"/>
  <text x="1075" y="133" text-anchor="middle" fill="#fca5a5" font-size="9" font-weight="600">RAG Detector</text>
  <text x="1075" y="146" text-anchor="middle" fill="#64748b" font-size="8">Entropy · Perplexity · Homoglyph</text>

  <rect x="810" y="163" width="170" height="38" rx="5" fill="#1e293b" stroke="#f59e0b" stroke-width="1"/>
  <text x="895" y="181" text-anchor="middle" fill="#fcd34d" font-size="9" font-weight="600">MCP Auditor</text>
  <text x="895" y="194" text-anchor="middle" fill="#64748b" font-size="8">Unicode · Base64 · Schema · Behavior</text>

  <rect x="990" y="163" width="170" height="38" rx="5" fill="#1e293b" stroke="#f59e0b" stroke-width="1"/>
  <text x="1075" y="181" text-anchor="middle" fill="#fcd34d" font-size="9" font-weight="600">Provenance Tracker</text>
  <text x="1075" y="194" text-anchor="middle" fill="#64748b" font-size="8">DAG · Contamination · Depth</text>

  <rect x="810" y="211" width="170" height="38" rx="5" fill="#1e293b" stroke="#8b5cf6" stroke-width="1"/>
  <text x="895" y="229" text-anchor="middle" fill="#c4b5fd" font-size="9" font-weight="600">Telemetry Simulator</text>
  <text x="895" y="242" text-anchor="middle" fill="#64748b" font-size="8">8 scenarios · Seeded PRNG</text>

  <rect x="990" y="211" width="170" height="38" rx="5" fill="#1e293b" stroke="#8b5cf6" stroke-width="1"/>
  <text x="1075" y="229" text-anchor="middle" fill="#c4b5fd" font-size="9" font-weight="600">Threat Aggregator</text>
  <text x="1075" y="242" text-anchor="middle" fill="#64748b" font-size="8">Weighted fusion · 4 engine inputs</text>

  <!-- Engine weights -->
  <rect x="810" y="260" width="350" height="35" rx="5" fill="#0f172a" stroke="#475569" stroke-width="1"/>
  <text x="820" y="276" fill="#94a3b8" font-size="9" font-weight="600">Threat Fusion Weights:</text>
  <text x="820" y="290" fill="#64748b" font-size="8">Vector 0.30 · RAG 0.25 · MCP 0.25 · Provenance 0.20 → Unified Score → Severity</text>

  <!-- Arrow from engines to edge functions -->
  <line x1="980" y1="350" x2="980" y2="380" stroke="#f59e0b" stroke-width="2" stroke-dasharray="6,3"/>
  <polygon points="975,378 980,388 985,378" fill="#f59e0b"/>

  <!-- ═══════════ SUPABASE LAYER ═══════════ -->
  <rect x="30" y="390" width="1140" height="260" rx="10" fill="url(#supaGrad)" stroke="#334155" stroke-width="1.5"/>
  <text x="50" y="412" fill="#22c55e" font-size="12" font-weight="700">SUPABASE — Backend Platform</text>
  <text x="310" y="412" fill="#475569" font-size="9">PostgreSQL 16 · Deno Edge Functions · PostgREST API · Row-Level Security</text>

  <!-- Edge Functions -->
  <rect x="50" y="425" width="540" height="90" rx="6" fill="#0f172a" stroke="#475569" stroke-width="1"/>
  <text x="60" y="443" fill="#e2e8f0" font-size="10" font-weight="600">8 Edge Functions (Deno Runtime)</text>

  <rect x="60" y="452" width="122" height="24" rx="4" fill="#1e293b" stroke="#22c55e" stroke-width="0.8"/>
  <text x="121" y="468" text-anchor="middle" fill="#86efac" font-size="8">dashboard-summary</text>

  <rect x="192" y="452" width="95" height="24" rx="4" fill="#1e293b" stroke="#22c55e" stroke-width="0.8"/>
  <text x="239" y="468" text-anchor="middle" fill="#86efac" font-size="8">scan-vectors</text>

  <rect x="297" y="452" width="80" height="24" rx="4" fill="#1e293b" stroke="#22c55e" stroke-width="0.8"/>
  <text x="337" y="468" text-anchor="middle" fill="#86efac" font-size="8">scan-rag</text>

  <rect x="387" y="452" width="80" height="24" rx="4" fill="#1e293b" stroke="#22c55e" stroke-width="0.8"/>
  <text x="427" y="468" text-anchor="middle" fill="#86efac" font-size="8">audit-tool</text>

  <rect x="60" y="482" width="85" height="24" rx="4" fill="#1e293b" stroke="#22c55e" stroke-width="0.8"/>
  <text x="102" y="498" text-anchor="middle" fill="#86efac" font-size="8">provenance</text>

  <rect x="155" y="482" width="115" height="24" rx="4" fill="#1e293b" stroke="#22c55e" stroke-width="0.8"/>
  <text x="212" y="498" text-anchor="middle" fill="#86efac" font-size="8">simulate-telemetry</text>

  <rect x="280" y="482" width="105" height="24" rx="4" fill="#1e293b" stroke="#22c55e" stroke-width="0.8"/>
  <text x="332" y="498" text-anchor="middle" fill="#86efac" font-size="8">ingest-telemetry</text>

  <rect x="395" y="482" width="95" height="24" rx="4" fill="#1e293b" stroke="#22c55e" stroke-width="0.8"/>
  <text x="442" y="498" text-anchor="middle" fill="#86efac" font-size="8">threat-report</text>

  <!-- RPC Functions -->
  <rect x="610" y="425" width="540" height="90" rx="6" fill="#0f172a" stroke="#475569" stroke-width="1"/>
  <text x="620" y="443" fill="#e2e8f0" font-size="10" font-weight="600">7 RPC Functions (SECURITY DEFINER)</text>

  <rect x="620" y="452" width="145" height="24" rx="4" fill="#1e293b" stroke="#a78bfa" stroke-width="0.8"/>
  <text x="692" y="468" text-anchor="middle" fill="#c4b5fd" font-size="8">get_dashboard_summary</text>

  <rect x="775" y="452" width="140" height="24" rx="4" fill="#1e293b" stroke="#a78bfa" stroke-width="0.8"/>
  <text x="845" y="468" text-anchor="middle" fill="#c4b5fd" font-size="8">get_dashboard_timeline</text>

  <rect x="925" y="452" width="130" height="24" rx="4" fill="#1e293b" stroke="#a78bfa" stroke-width="0.8"/>
  <text x="990" y="468" text-anchor="middle" fill="#c4b5fd" font-size="8">get_threat_breakdown</text>

  <rect x="620" y="482" width="120" height="24" rx="4" fill="#1e293b" stroke="#a78bfa" stroke-width="0.8"/>
  <text x="680" y="498" text-anchor="middle" fill="#c4b5fd" font-size="8">get_recent_alerts</text>

  <rect x="750" y="482" width="135" height="24" rx="4" fill="#1e293b" stroke="#a78bfa" stroke-width="0.8"/>
  <text x="817" y="498" text-anchor="middle" fill="#c4b5fd" font-size="8">get_telemetry_summary</text>

  <rect x="895" y="482" width="110" height="24" rx="4" fill="#1e293b" stroke="#a78bfa" stroke-width="0.8"/>
  <text x="950" y="498" text-anchor="middle" fill="#c4b5fd" font-size="8">get_drift_status</text>

  <rect x="1015" y="482" width="130" height="24" rx="4" fill="#1e293b" stroke="#a78bfa" stroke-width="0.8"/>
  <text x="1080" y="498" text-anchor="middle" fill="#c4b5fd" font-size="8">get_poisoning_timeline</text>

  <!-- Database Tables -->
  <rect x="50" y="530" width="1100" height="105" rx="6" fill="#0f172a" stroke="#475569" stroke-width="1"/>
  <text x="60" y="548" fill="#e2e8f0" font-size="10" font-weight="600">PostgreSQL 16 — 17 Tables with Row-Level Security</text>

  <!-- Table groups -->
  <text x="60" y="568" fill="#f59e0b" font-size="9" font-weight="600">Core:</text>
  <text x="95" y="568" fill="#94a3b8" font-size="8">tenants · api_keys · scans · alerts · audit_log (partitioned) · threat_reports</text>

  <text x="60" y="584" fill="#ef4444" font-size="9" font-weight="600">Detection:</text>
  <text x="115" y="584" fill="#94a3b8" font-size="8">vector_analyses · rag_scans · mcp_audits · provenance_nodes · provenance_edges</text>

  <text x="60" y="600" fill="#8b5cf6" font-size="9" font-weight="600">Telemetry:</text>
  <text x="115" y="600" fill="#94a3b8" font-size="8">ml_telemetry · llm_telemetry · telemetry_simulations · ground_truth · drift_baselines · detection_policies</text>

  <text x="60" y="622" fill="#22c55e" font-size="9" font-weight="600">Security:</text>
  <text x="110" y="622" fill="#94a3b8" font-size="8">RLS per tenant · SECURITY DEFINER RPCs · Anon demo policies · SHA-256 API key hashing · Monthly partitioned audit</text>

  <!-- ═══════════ DOCKER COMPOSE (Self-Hosted) ═══════════ -->
  <rect x="30" y="670" width="1140" height="105" rx="10" fill="url(#dockerGrad)" stroke="#334155" stroke-width="1.5"/>
  <text x="50" y="692" fill="#06b6d4" font-size="12" font-weight="700">DOCKER COMPOSE — Self-Hosted Option</text>
  <text x="350" y="692" fill="#475569" font-size="9">Isolated bridge network 172.28.0.0/16 · Healthchecks on all services</text>

  <rect x="50" y="705" width="145" height="50" rx="6" fill="#1e293b" stroke="#06b6d4" stroke-width="1"/>
  <text x="122" y="725" text-anchor="middle" fill="#67e8f9" font-size="10" font-weight="600">PostgreSQL 16</text>
  <text x="122" y="742" text-anchor="middle" fill="#64748b" font-size="8">Primary data store</text>

  <rect x="210" y="705" width="145" height="50" rx="6" fill="#1e293b" stroke="#06b6d4" stroke-width="1"/>
  <text x="282" y="725" text-anchor="middle" fill="#67e8f9" font-size="10" font-weight="600">Redis 7</text>
  <text x="282" y="742" text-anchor="middle" fill="#64748b" font-size="8">Cache · Rate limit · Pub/Sub</text>

  <rect x="370" y="705" width="145" height="50" rx="6" fill="#1e293b" stroke="#06b6d4" stroke-width="1"/>
  <text x="442" y="725" text-anchor="middle" fill="#67e8f9" font-size="10" font-weight="600">Neo4j 5</text>
  <text x="442" y="742" text-anchor="middle" fill="#64748b" font-size="8">Provenance graph DB</text>

  <rect x="530" y="705" width="145" height="50" rx="6" fill="#1e293b" stroke="#06b6d4" stroke-width="1"/>
  <text x="602" y="725" text-anchor="middle" fill="#67e8f9" font-size="10" font-weight="600">Kafka (KRaft)</text>
  <text x="602" y="742" text-anchor="middle" fill="#64748b" font-size="8">Async scan pipeline</text>

  <rect x="690" y="705" width="220" height="50" rx="6" fill="#1e293b" stroke="#f59e0b" stroke-width="1"/>
  <text x="800" y="725" text-anchor="middle" fill="#fcd34d" font-size="10" font-weight="600">FastAPI Backend (14,726 LOC)</text>
  <text x="800" y="742" text-anchor="middle" fill="#64748b" font-size="8">SQLAlchemy · asyncpg · 8 routers · 6 services</text>

  <rect x="925" y="705" width="220" height="50" rx="6" fill="#1e293b" stroke="#3b82f6" stroke-width="1"/>
  <text x="1035" y="725" text-anchor="middle" fill="#93c5fd" font-size="10" font-weight="600">Next.js Frontend (port 3000)</text>
  <text x="1035" y="742" text-anchor="middle" fill="#64748b" font-size="8">Same codebase as Vercel deploy</text>

  <!-- ═══════════ DATA FLOW ARROWS ═══════════ -->
  <!-- Frontend to Edge Functions -->
  <path d="M 200 310 Q 200 360 200 425" fill="none" stroke="#3b82f6" stroke-width="1.5" stroke-dasharray="4,3"/>
  <text x="135" y="370" fill="#3b82f6" font-size="8">POST (write ops)</text>

  <!-- Frontend to RPCs -->
  <path d="M 600 310 Q 750 360 800 425" fill="none" stroke="#a78bfa" stroke-width="1.5" stroke-dasharray="4,3"/>
  <text x="680" y="370" fill="#a78bfa" font-size="8">RPC (read ops)</text>

  <!-- Edge Functions to DB -->
  <line x1="320" y1="515" x2="320" y2="530" stroke="#22c55e" stroke-width="1.5"/>

  <!-- RPCs to DB -->
  <line x1="880" y1="515" x2="880" y2="530" stroke="#a78bfa" stroke-width="1.5"/>

  <!-- Footer -->
  <text x="600" y="800" text-anchor="middle" fill="#475569" font-size="9">poisoning-detection-paas · github.com/iaintheardofu/platform</text>
  <text x="600" y="816" text-anchor="middle" fill="#334155" font-size="8">Built by AI Cowboys · Powered by Supabase + Vercel</text>

  <!-- Legend -->
  <rect x="30" y="835" width="1140" height="45" rx="6" fill="#0f172a" stroke="#1e293b" stroke-width="1"/>
  <text x="50" y="855" fill="#94a3b8" font-size="9" font-weight="600">Legend:</text>
  <rect x="100" y="847" width="12" height="12" rx="2" fill="#1e3a5f" stroke="#3b82f6" stroke-width="1"/>
  <text x="118" y="857" fill="#64748b" font-size="8">Frontend Page</text>
  <rect x="200" y="847" width="12" height="12" rx="2" fill="#1e293b" stroke="#22c55e" stroke-width="1"/>
  <text x="218" y="857" fill="#64748b" font-size="8">Edge Function</text>
  <rect x="310" y="847" width="12" height="12" rx="2" fill="#1e293b" stroke="#a78bfa" stroke-width="1"/>
  <text x="328" y="857" fill="#64748b" font-size="8">RPC Function</text>
  <rect x="415" y="847" width="12" height="12" rx="2" fill="#1e293b" stroke="#ef4444" stroke-width="1"/>
  <text x="433" y="857" fill="#64748b" font-size="8">Detection Engine</text>
  <rect x="535" y="847" width="12" height="12" rx="2" fill="#1e293b" stroke="#06b6d4" stroke-width="1"/>
  <text x="553" y="857" fill="#64748b" font-size="8">Docker Service</text>
  <line x1="640" y1="853" x2="680" y2="853" stroke="#3b82f6" stroke-width="1.5" stroke-dasharray="4,3"/>
  <text x="688" y="857" fill="#64748b" font-size="8">API Call</text>
</svg>
